<svg width="220" height="74" viewBox="0 0 220 74" fill="none" xmlns="http://www.w3.org/2000/svg">
<path d="M7.28722 73.7441H6.59402V61.4977H7.60715L13.0283 70.6692C13.206 70.3493 14.9657 67.2921 18.325 61.4977H19.2848V73.7441H18.5917C18.5917 67.0255 18.5917 63.204 18.6094 62.2442C17.8274 63.6839 16.0322 66.7411 13.2594 71.4335H12.7439C11.8197 69.8871 10.9843 68.483 10.2377 67.2388C9.49123 65.9946 8.958 65.1236 8.67361 64.6259C8.38922 64.146 8.12261 63.7017 7.89154 63.3106C7.6427 62.9196 7.44718 62.5464 7.26944 62.2264C7.26944 63.4173 7.28722 67.2565 7.28722 73.7441ZM41.188 73.7441H32.9763V61.4977H40.8503V62.1731H33.6695V67.0255H40.406V67.7009H33.6695V73.0687H41.188V73.7441ZM54.6883 73.7441H53.9951V61.4977H55.0082L60.4294 70.6692C60.6071 70.3493 62.3668 67.2921 65.7261 61.4977H66.6859V73.7441H65.9927C65.9927 67.0255 65.9927 63.204 66.0105 62.2442C65.2284 63.6839 63.4332 66.7411 60.6604 71.4335H60.145C59.2207 69.8871 58.3853 68.483 57.6388 67.2388C56.8923 65.9946 56.3591 65.1236 56.0747 64.6259C55.7903 64.146 55.5237 63.7017 55.2926 63.3106C55.0438 62.9196 54.8482 62.5464 54.6705 62.2264C54.6705 63.4173 54.6883 67.2565 54.6883 73.7441ZM80.3774 73.7441V61.4977H82.848C83.5056 61.4977 84.2344 61.5332 85.0165 61.5688C86.0829 61.6576 86.9183 61.942 87.5049 62.4042C88.0914 62.8663 88.3936 63.5239 88.3936 64.3416C88.3936 65.9412 87.5759 66.9366 85.9407 67.3099C87.0249 67.3987 87.8603 67.7009 88.4291 68.1986C88.9979 68.6962 89.2823 69.3894 89.2823 70.2426C89.2823 71.8067 88.4647 72.8554 86.8294 73.3887C86.1007 73.6375 84.9098 73.7441 83.239 73.7441H80.3774ZM81.0706 73.0687H83.6478C85.1409 73.0687 86.2073 72.9443 86.8472 72.6955C87.9848 72.2511 88.5713 71.4157 88.5713 70.1893C88.5713 69.6738 88.3936 69.2295 88.0736 68.8562C87.7359 68.483 87.3093 68.2163 86.8117 68.0564C86.0474 67.8253 85.1231 67.7009 84.0211 67.7009H81.0706V73.0687ZM81.0706 67.0255H83.8789C84.9809 67.0255 85.7985 66.901 86.2962 66.6522C87.2027 66.1901 87.6648 65.4436 87.6648 64.3949C87.6648 63.8794 87.4871 63.4351 87.1494 63.0796C86.8117 62.7241 86.3673 62.4753 85.8341 62.3508C85.3186 62.2442 84.5899 62.1731 83.6301 62.1731H81.0706V67.0255ZM110.406 73.7441H102.195V61.4977H110.069V62.1731H102.888V67.0255H109.624V67.7009H102.888V73.0687H110.406V73.7441ZM133.114 73.7441H132.243L128.012 68.163C127.55 68.2163 127.053 68.2341 126.519 68.2341H123.907V73.7441H123.213V61.4977H126.804C128.226 61.4977 129.292 61.6043 130.003 61.7998C130.696 62.0131 131.23 62.3686 131.603 62.8841C131.976 63.4173 132.172 64.0749 132.172 64.857C132.172 65.6391 131.941 66.2967 131.514 66.7944C131.087 67.3099 130.483 67.6653 129.737 67.8786C129.381 67.9853 129.061 68.0386 128.777 68.0741L133.114 73.7441ZM123.907 67.5587H127.035C127.995 67.5587 128.883 67.452 129.665 67.2032C130.856 66.8299 131.461 66.0657 131.461 64.9103C131.461 63.8439 131.052 63.0796 130.234 62.6352C129.648 62.3331 128.617 62.1731 127.141 62.1731H123.907V67.5587ZM144.278 72.3933V71.4513H144.367C144.794 72.02 145.451 72.4644 146.34 72.8021C147.229 73.1398 148.189 73.2998 149.255 73.2998C150.784 73.2998 151.886 73.0509 152.525 72.5533C153.165 72.0556 153.503 71.4335 153.503 70.6514C153.503 70.0826 153.254 69.6027 152.757 69.2473C152.259 68.8918 151.388 68.5185 150.144 68.163L147.442 67.3987C145.522 66.8655 144.563 65.8879 144.563 64.4837C144.563 63.4528 144.989 62.653 145.878 62.0842C146.749 61.5154 147.957 61.2133 149.486 61.2133C150.304 61.2133 151.086 61.3377 151.868 61.551C152.65 61.7821 153.219 62.0487 153.61 62.3686V63.2218H153.539C152.508 62.3331 151.157 61.8887 149.451 61.8887C148.011 61.8887 146.962 62.1375 146.287 62.5997C145.611 63.0618 145.291 63.6839 145.291 64.4482C145.291 65.1058 145.505 65.6035 145.949 65.9412C146.393 66.2967 147.14 66.6167 148.189 66.901L150.979 67.6831C152.081 68.0031 152.881 68.3585 153.414 68.7851C153.947 69.2117 154.214 69.816 154.214 70.6336C154.214 71.629 153.805 72.4288 152.988 73.0509C152.17 73.6908 150.89 73.993 149.184 73.993C148.189 73.993 147.247 73.8508 146.358 73.5486C145.469 73.2642 144.776 72.8732 144.278 72.3933ZM167.61 73.7441H166.917V61.4977H167.61V67.0255H176.302V61.4977H176.995V73.7441H176.302V67.7009H167.61V73.7441ZM191.372 73.7441H190.679V61.4977H191.372V73.7441ZM205.743 73.7441H205.049V61.4977H208.871C210.186 61.4977 211.253 61.6221 212.035 61.8532C212.71 62.0664 213.243 62.4397 213.634 62.9729C214.008 63.5062 214.203 64.1816 214.203 64.9637C214.203 66.7055 213.368 67.8075 211.715 68.3052C210.915 68.5541 209.866 68.6607 208.586 68.6607H205.743V73.7441ZM205.743 67.9853H208.693C210.133 67.9853 211.181 67.8609 211.857 67.5765C212.941 67.0966 213.492 66.2256 213.492 64.9814C213.492 63.7728 212.977 62.9552 211.946 62.5286C211.377 62.2975 210.399 62.1731 208.995 62.1731H205.743V67.9853Z" fill="white"/>
<g clip-path="url(#clip0_1488_1393)">
<path fill-rule="evenodd" clip-rule="evenodd" d="M188.079 22.8668L201.657 2.2744L211.871 0.103516L195.719 24.4795L211.871 48.8347L202.338 46.912L201.657 46.7879L188.058 26.0508L178.843 40.1719L169.629 42.0326L181.312 24.4588L169.607 6.82292L178.822 8.68368L188.079 22.8668Z" fill="#3096FF"/>
<path d="M163.863 25.6373V41.9707H159.33V26.7538C159.33 24.9344 158.819 23.5492 157.819 22.5981C156.84 21.647 155.606 21.1715 154.116 21.1715C152.988 21.1715 151.882 21.461 150.775 22.0399C149.668 22.5981 148.775 23.3838 148.072 24.3968V41.9707H143.582V7.21582H148.072V19.9517C149.966 17.8635 152.307 16.8091 155.095 16.8091C156.691 16.8091 158.16 17.1605 159.5 17.8842C160.82 18.5871 161.884 19.6002 162.65 20.9234C163.458 22.2466 163.863 23.8179 163.863 25.6373Z" fill="white"/>
<path d="M133.197 19.0831H139.177V22.8046H133.197V41.7016H128.323V22.8046H124.344V19.0831H128.323V11.3506H133.197V19.0831Z" fill="white"/>
<path d="M115.214 18.7109H120.003L110.043 41.7017L103.106 26.8156L96.7851 41.7017L86.7617 18.7109H91.5712L97.3597 31.8603L101.382 22.4325L99.658 18.7109H103.893L109.724 32.1704L115.214 18.7109Z" fill="white"/>
<path d="M72.3758 18.1113C68.9709 18.1113 66.0767 19.2485 63.7145 21.5227C62.544 22.6599 61.6502 23.9417 61.0756 25.3476C60.4798 26.7535 60.2031 28.2835 60.2031 29.9375C60.2031 33.2662 61.3736 36.078 63.7145 38.3523C66.098 40.6265 68.9922 41.7636 72.3758 41.7636C75.7595 41.7636 78.6537 40.6265 81.0372 38.3523C83.4207 36.078 84.6124 33.2662 84.6124 29.9375C84.6124 26.6088 83.4207 23.797 81.0372 21.5227C78.6537 19.2485 75.7808 18.1113 72.3758 18.1113ZM78.143 35.6025C76.5895 37.1118 74.6529 37.8767 72.3758 37.8767C70.1201 37.8767 68.2048 37.1118 66.6513 35.6025C65.0978 34.0932 64.3104 32.2117 64.3104 29.9375C64.3104 27.6839 65.0978 25.8025 66.6513 24.2932C68.2048 22.7839 70.1201 22.0189 72.3758 22.0189C74.6742 22.0189 76.5895 22.7839 78.143 24.2932C79.6965 25.8025 80.4839 27.6839 80.4839 29.9375C80.4839 32.2117 79.6965 34.0932 78.143 35.6025Z" fill="white"/>
<path d="M56.4154 18.4838L56.5006 18.5045V22.6395H54.415C52.3508 22.6395 50.6696 23.2391 49.5204 24.3762C48.3712 25.5133 47.7328 27.1673 47.7328 29.2969V41.8053H43.0723V18.7112H47.4349L47.6902 21.7505C48.7543 19.6002 51.0101 18.1943 54.032 18.1943C54.8407 18.1943 55.5004 18.2977 56.4154 18.4838Z" fill="white"/>
<path d="M24.1736 22.6185H35.942V38.4349C34.878 39.2412 33.1968 39.9855 30.8772 40.6678C28.6001 41.3501 26.4933 41.7016 24.5567 41.7016C20.8964 41.7016 17.6617 40.9986 14.8738 39.5514C12.086 38.0834 9.93666 36.0986 8.40443 33.5763C6.91476 31.0539 6.16992 28.2214 6.16992 25.0788C6.16992 21.3986 6.9786 18.2353 8.59596 15.5476C10.2133 12.8391 12.4053 10.7716 15.1505 9.34504C17.8957 7.91846 20.9176 7.19482 24.1949 7.19482C26.1741 7.19482 28.0255 7.42226 29.7918 7.89778C31.5369 8.33196 33.1117 8.93153 34.5162 9.67584L32.0902 13.418C31.2177 13.0252 30.1962 12.6944 29.0257 12.3843C27.4722 11.9501 26.0676 11.7227 24.7908 11.7227C22.0668 11.7227 19.6621 12.2602 17.5553 13.3147C15.4697 14.3691 13.8736 15.8784 12.7457 17.8425C11.6179 19.8066 11.0433 22.0809 11.0433 24.7066C11.0433 27.1463 11.6179 29.2965 12.7457 31.1986C13.8736 33.1007 15.491 34.5687 17.5553 35.6231C19.6195 36.6568 22.003 37.1737 24.6418 37.1737C25.8761 37.1737 27.0679 37.0704 28.2383 36.8429C29.4088 36.5948 30.3877 36.2434 31.1538 35.8092V26.9395H24.1524V22.6185H24.1736Z" fill="white"/>
</g>
<defs>
<clipPath id="clip0_1488_1393">
<rect width="206" height="49" fill="white" transform="translate(6)"/>
</clipPath>
</defs>
</svg>
