<svg width="48" height="76" viewBox="0 0 48 76" fill="none" xmlns="http://www.w3.org/2000/svg">
<g filter="url(#filter0_d_486_315)">
<mask id="path-1-inside-1_486_315" fill="white">
<path d="M39.9711 66.2472H7.49709V62.6953C15.2773 62.357 15.6156 61.6805 15.6156 56.5219V20.9189H7.49709V17.6207L11.3872 16.9442C19.7594 15.5065 24.1569 12.293 28.5545 6.11951H32.1063V56.5219C32.1063 61.6805 32.952 62.2725 39.9711 62.6953V66.2472Z"/>
</mask>
<path d="M39.9711 66.2472V68.2472H41.9711V66.2472H39.9711ZM7.49709 66.2472H5.49709V68.2472H7.49709V66.2472ZM7.49709 62.6953L7.41022 60.6972L5.49709 60.7804V62.6953H7.49709ZM15.6156 20.9189H17.6156V18.9189H15.6156V20.9189ZM7.49709 20.9189H5.49709V22.9189H7.49709V20.9189ZM7.49709 17.6207L7.15441 15.6503L5.49709 15.9385V17.6207H7.49709ZM11.3872 16.9442L11.0487 14.973L11.0445 14.9738L11.3872 16.9442ZM28.5545 6.11951V4.11951H27.5236L26.9255 4.95915L28.5545 6.11951ZM32.1063 6.11951H34.1063V4.11951H32.1063V6.11951ZM39.9711 62.6953H41.9711V60.8122L40.0914 60.6989L39.9711 62.6953ZM39.9711 64.2472H7.49709V68.2472H39.9711V64.2472ZM9.49709 66.2472V62.6953H5.49709V66.2472H9.49709ZM7.58397 64.6934C9.53108 64.6088 11.1221 64.4997 12.3834 64.2851C13.6232 64.0741 14.8035 63.7231 15.7328 62.9704C16.7409 62.1537 17.1947 61.0835 17.4049 59.9942C17.6005 58.981 17.6156 57.7791 17.6156 56.5219H13.6156C13.6156 57.8439 13.5884 58.6611 13.4774 59.2362C13.3811 59.7352 13.264 59.8225 13.2151 59.8621C13.0872 59.9657 12.7242 60.1696 11.7123 60.3418C10.722 60.5103 9.35322 60.6127 7.41022 60.6972L7.58397 64.6934ZM17.6156 56.5219V20.9189H13.6156V56.5219H17.6156ZM15.6156 18.9189H7.49709V22.9189H15.6156V18.9189ZM9.49709 20.9189V17.6207H5.49709V20.9189H9.49709ZM7.83977 19.5911L11.7299 18.9146L11.0445 14.9738L7.15441 15.6503L7.83977 19.5911ZM11.7257 18.9153C16.1046 18.1634 19.5722 16.924 22.5525 14.9839C25.5282 13.0468 27.8973 10.4892 30.1834 7.27988L26.9255 4.95915C24.814 7.92329 22.7857 10.0592 20.3702 11.6316C17.9593 13.2011 15.042 14.2873 11.0487 14.973L11.7257 18.9153ZM28.5545 8.11951H32.1063V4.11951H28.5545V8.11951ZM30.1063 6.11951V56.5219H34.1063V6.11951H30.1063ZM30.1063 56.5219C30.1063 57.8222 30.1546 59.0333 30.4033 60.0699C30.6695 61.1792 31.1899 62.1953 32.1797 62.964C33.0989 63.678 34.2355 64.0277 35.4203 64.245C36.6183 64.4647 38.0959 64.586 39.8508 64.6917L40.0914 60.6989C38.3367 60.5932 37.0764 60.482 36.1418 60.3106C35.1939 60.1367 34.803 59.9367 34.6333 59.805C34.5344 59.7281 34.4047 59.6025 34.2929 59.1367C34.1637 58.5983 34.1063 57.8009 34.1063 56.5219H30.1063ZM37.9711 62.6953V66.2472H41.9711V62.6953H37.9711Z" fill="url(#paint0_linear_486_315)" mask="url(#path-1-inside-1_486_315)"/>
</g>
<defs>
<filter id="filter0_d_486_315" x="0.284589" y="0.684151" width="46.8991" height="74.5526" filterUnits="userSpaceOnUse" color-interpolation-filters="sRGB">
<feFlood flood-opacity="0" result="BackgroundImageFix"/>
<feColorMatrix in="SourceAlpha" type="matrix" values="0 0 0 0 0 0 0 0 0 0 0 0 0 0 0 0 0 0 127 0" result="hardAlpha"/>
<feOffset dy="1.77713"/>
<feGaussianBlur stdDeviation="3.60624"/>
<feComposite in2="hardAlpha" operator="out"/>
<feColorMatrix type="matrix" values="0 0 0 0 0 0 0 0 0 0 0 0 0 0 0 0 0 0 0.25 0"/>
<feBlend mode="normal" in2="BackgroundImageFix" result="effect1_dropShadow_486_315"/>
<feBlend mode="normal" in="SourceGraphic" in2="effect1_dropShadow_486_315" result="shape"/>
</filter>
<linearGradient id="paint0_linear_486_315" x1="23.2627" y1="7.24716" x2="23.2627" y2="66.2472" gradientUnits="userSpaceOnUse">
<stop offset="0.389182" stop-color="white"/>
<stop offset="0.910813" stop-color="white" stop-opacity="0"/>
</linearGradient>
</defs>
</svg>
