<svg width="60" height="77" viewBox="0 0 60 77" fill="none" xmlns="http://www.w3.org/2000/svg">
<g filter="url(#filter0_d_499_351)">
<mask id="path-1-inside-1_499_351" fill="white">
<path d="M33.3866 32.1663C44.6341 32.5045 51.9915 38.9317 51.9915 48.657C51.9915 60.9193 40.6594 67.0927 28.7354 67.0927C15.2045 67.0927 8.18543 61.5958 8.18543 54.9996C8.18543 51.5323 10.1305 48.9107 12.0755 47.9804H21.8854C21.2934 49.4181 20.9552 51.1094 20.9552 53.4773C20.9552 59.1434 23.6613 63.71 29.1582 63.71C34.0632 63.71 36.7693 59.4817 36.7693 52.2088C36.7693 43.9212 32.0335 38.5934 23.4922 38.5934H21.8854L20.9552 36.141C29.9193 32.5045 32.8792 29.1218 32.8792 23.9632C32.8792 19.3966 30.173 16.3521 24.8453 16.3521C19.9403 16.3521 16.5576 18.5509 13.5978 22.1027L11.3144 20.3268C15.2045 12.2083 21.5471 6.03485 32.7946 6.03485C41.8434 6.03485 48.186 10.5169 48.186 18.3817C48.186 26.9231 39.8983 30.8132 33.3866 32.1663Z"/>
</mask>
<path d="M33.3866 32.1663L32.9797 30.2081L33.3265 34.1654L33.3866 32.1663ZM12.0755 47.9804V45.9804H11.6219L11.2126 46.1762L12.0755 47.9804ZM21.8854 47.9804L23.7348 48.7419L24.8718 45.9804H21.8854V47.9804ZM21.8854 38.5934L20.0154 39.3027L20.505 40.5934H21.8854V38.5934ZM20.9552 36.141L20.2033 34.2876L18.3919 35.0225L19.0852 36.8503L20.9552 36.141ZM13.5978 22.1027L12.3699 23.6814L13.8963 24.8686L15.1342 23.3831L13.5978 22.1027ZM11.3144 20.3268L9.5108 19.4626L8.81435 20.916L10.0866 21.9055L11.3144 20.3268ZM33.3265 34.1654C38.5945 34.3238 42.7629 35.9012 45.5833 38.3909C48.375 40.8552 49.9915 44.3359 49.9915 48.657H53.9915C53.9915 43.2528 51.9293 38.6573 48.2304 35.3921C44.5603 32.1523 39.4263 30.347 33.4467 30.1672L33.3265 34.1654ZM49.9915 48.657C49.9915 54.0803 47.5231 58.1061 43.6755 60.8436C39.7661 63.6251 34.3853 65.0927 28.7354 65.0927V69.0927C35.0095 69.0927 41.2567 67.4737 45.9944 64.1029C50.7939 60.6881 53.9915 55.496 53.9915 48.657H49.9915ZM28.7354 65.0927C22.2101 65.0927 17.4857 63.7629 14.4621 61.8337C11.4831 59.933 10.1854 57.4951 10.1854 54.9996H6.18543C6.18543 59.1003 8.39734 62.709 12.3106 65.2058C16.1792 67.6742 21.7298 69.0927 28.7354 69.0927V65.0927ZM10.1854 54.9996C10.1854 52.2447 11.7388 50.3584 12.9385 49.7847L11.2126 46.1762C8.52212 47.4629 6.18543 50.8198 6.18543 54.9996H10.1854ZM12.0755 49.9804H21.8854V45.9804H12.0755V49.9804ZM20.036 47.2189C19.3244 48.9473 18.9552 50.9072 18.9552 53.4773H22.9552C22.9552 51.3117 23.2625 49.8889 23.7348 48.7419L20.036 47.2189ZM18.9552 53.4773C18.9552 56.5956 19.6955 59.6126 21.3855 61.9052C23.1289 64.2703 25.7791 65.71 29.1582 65.71V61.71C27.0404 61.71 25.5891 60.8665 24.6052 59.5317C23.5679 58.1245 22.9552 56.0251 22.9552 53.4773H18.9552ZM29.1582 65.71C32.2861 65.71 34.8169 64.3123 36.4755 61.7837C38.0631 59.3632 38.7693 56.0461 38.7693 52.2088H34.7693C34.7693 55.6443 34.1224 58.0779 33.1308 59.5898C32.21 60.9936 30.9352 61.71 29.1582 61.71V65.71ZM38.7693 52.2088C38.7693 47.6925 37.4745 43.7454 34.7831 40.9151C32.0775 38.0698 28.189 36.5934 23.4922 36.5934V40.5934C27.3367 40.5934 30.0868 41.781 31.8844 43.6714C33.6963 45.5769 34.7693 48.4375 34.7693 52.2088H38.7693ZM23.4922 36.5934H21.8854V40.5934H23.4922V36.5934ZM23.7554 37.8841L22.8251 35.4317L19.0852 36.8503L20.0154 39.3027L23.7554 37.8841ZM21.707 37.9943C26.2694 36.1435 29.5674 34.26 31.724 32.0054C33.9766 29.6504 34.8792 27.0029 34.8792 23.9632H30.8792C30.8792 26.0822 30.3018 27.7054 28.8335 29.2405C27.2691 30.876 24.605 32.5021 20.2033 34.2876L21.707 37.9943ZM34.8792 23.9632C34.8792 21.2877 34.0793 18.8217 32.2688 17.0254C30.4574 15.2283 27.8873 14.3521 24.8453 14.3521V18.3521C27.131 18.3521 28.5779 18.9982 29.4515 19.865C30.326 20.7325 30.8792 22.0721 30.8792 23.9632H34.8792ZM24.8453 14.3521C19.1823 14.3521 15.2815 16.9581 12.0613 20.8224L15.1342 23.3831C17.8337 20.1437 20.6984 18.3521 24.8453 18.3521V14.3521ZM14.8256 20.524L12.5423 18.7481L10.0866 21.9055L12.3699 23.6814L14.8256 20.524ZM13.1181 21.191C14.9702 17.3258 17.3452 14.0537 20.4806 11.7475C23.5893 9.46083 27.5642 8.03485 32.7946 8.03485V4.03485C26.7775 4.03485 21.9574 5.69559 18.1105 8.52529C14.2901 11.3354 11.5488 15.2093 9.5108 19.4626L13.1181 21.191ZM32.7946 8.03485C37.0153 8.03485 40.3892 9.08269 42.6591 10.8403C44.8712 12.5532 46.186 15.0483 46.186 18.3817H50.186C50.186 13.8504 48.3294 10.172 45.108 7.67765C41.9445 5.22806 37.6227 4.03485 32.7946 4.03485V8.03485ZM46.186 18.3817C46.186 21.8968 44.5201 24.4617 42.0124 26.3815C39.4493 28.3438 36.0671 29.5666 32.9797 30.2081L33.7935 34.1244C37.2178 33.4129 41.2353 32.0141 44.4439 29.5577C47.708 27.0588 50.186 23.408 50.186 18.3817H46.186Z" fill="url(#paint0_linear_499_351)" mask="url(#path-1-inside-1_499_351)"/>
</g>
<defs>
<filter id="filter0_d_499_351" x="0.973065" y="0.5998" width="58.2311" height="75.4826" filterUnits="userSpaceOnUse" color-interpolation-filters="sRGB">
<feFlood flood-opacity="0" result="BackgroundImageFix"/>
<feColorMatrix in="SourceAlpha" type="matrix" values="0 0 0 0 0 0 0 0 0 0 0 0 0 0 0 0 0 0 127 0" result="hardAlpha"/>
<feOffset dy="1.77713"/>
<feGaussianBlur stdDeviation="3.60624"/>
<feComposite in2="hardAlpha" operator="out"/>
<feColorMatrix type="matrix" values="0 0 0 0 0 0 0 0 0 0 0 0 0 0 0 0 0 0 0.25 0"/>
<feBlend mode="normal" in2="BackgroundImageFix" result="effect1_dropShadow_499_351"/>
<feBlend mode="normal" in="SourceGraphic" in2="effect1_dropShadow_499_351" result="shape"/>
</filter>
<linearGradient id="paint0_linear_499_351" x1="30.7627" y1="7.24707" x2="30.7627" y2="66.2471" gradientUnits="userSpaceOnUse">
<stop offset="0.389182" stop-color="white"/>
<stop offset="0.910813" stop-color="white" stop-opacity="0"/>
</linearGradient>
</defs>
</svg>
